<mxfile host="app.diagrams.net" modified="2023-10-05T19:12:28.684Z" agent="Mozilla/5.0 (Windows NT 10.0; Win64; x64) AppleWebKit/537.36 (KHTML, like Gecko) Chrome/117.0.0.0 Safari/537.36" etag="2EgrRrmKDaqhNVr2_Oju" version="22.0.2" type="google">
  <diagram name="Page-1" id="whpl-MPUlZR_6M7GGlMQ">
    <mxGraphModel dx="1290" dy="542" grid="1" gridSize="10" guides="1" tooltips="1" connect="1" arrows="1" fold="1" page="1" pageScale="1" pageWidth="850" pageHeight="1100" math="0" shadow="0">
      <root>
        <mxCell id="0" />
        <mxCell id="1" parent="0" />
        <mxCell id="sFBlTdnJSiNbamzqJHmH-2" value="Car insurance management system" style="shape=ellipse;html=1;dashed=0;whiteSpace=wrap;perimeter=ellipsePerimeter;" parent="1" vertex="1">
          <mxGeometry x="370" y="200" width="100" height="90" as="geometry" />
        </mxCell>
        <mxCell id="sFBlTdnJSiNbamzqJHmH-3" value="Admin management" style="html=1;dashed=0;whiteSpace=wrap;" parent="1" vertex="1">
          <mxGeometry x="360" y="20" width="120" height="50" as="geometry" />
        </mxCell>
        <mxCell id="sFBlTdnJSiNbamzqJHmH-4" value="Car management" style="html=1;dashed=0;whiteSpace=wrap;" parent="1" vertex="1">
          <mxGeometry x="120" y="120" width="120" height="50" as="geometry" />
        </mxCell>
        <mxCell id="sFBlTdnJSiNbamzqJHmH-5" value="User management" style="html=1;dashed=0;whiteSpace=wrap;" parent="1" vertex="1">
          <mxGeometry x="600" y="120" width="120" height="50" as="geometry" />
        </mxCell>
        <mxCell id="sFBlTdnJSiNbamzqJHmH-6" value="&#xa;&lt;span style=&quot;color: rgb(0, 0, 0); font-family: Helvetica; font-size: 12px; font-style: normal; font-variant-ligatures: normal; font-variant-caps: normal; font-weight: 400; letter-spacing: normal; orphans: 2; text-align: center; text-indent: 0px; text-transform: none; widows: 2; word-spacing: 0px; -webkit-text-stroke-width: 0px; background-color: rgb(251, 251, 251); text-decoration-thickness: initial; text-decoration-style: initial; text-decoration-color: initial; float: none; display: inline !important;&quot;&gt;Policy management&lt;/span&gt;&#xa;&#xa;" style="html=1;dashed=0;whiteSpace=wrap;" parent="1" vertex="1">
          <mxGeometry x="120" y="310" width="120" height="50" as="geometry" />
        </mxCell>
        <mxCell id="sFBlTdnJSiNbamzqJHmH-7" value="Claim management" style="html=1;dashed=0;whiteSpace=wrap;" parent="1" vertex="1">
          <mxGeometry x="600" y="310" width="120" height="50" as="geometry" />
        </mxCell>
        <mxCell id="sFBlTdnJSiNbamzqJHmH-9" value="Payment management&lt;br&gt;" style="html=1;dashed=0;whiteSpace=wrap;" parent="1" vertex="1">
          <mxGeometry x="360" y="430" width="120" height="50" as="geometry" />
        </mxCell>
        <mxCell id="sFBlTdnJSiNbamzqJHmH-11" value="" style="endArrow=classic;startArrow=classic;html=1;rounded=0;" parent="1" target="sFBlTdnJSiNbamzqJHmH-2" edge="1">
          <mxGeometry width="50" height="50" relative="1" as="geometry">
            <mxPoint x="240" y="340" as="sourcePoint" />
            <mxPoint x="290" y="290" as="targetPoint" />
          </mxGeometry>
        </mxCell>
        <mxCell id="sFBlTdnJSiNbamzqJHmH-12" value="" style="endArrow=classic;startArrow=classic;html=1;rounded=0;entryX=1;entryY=0.5;entryDx=0;entryDy=0;exitX=0.044;exitY=0.26;exitDx=0;exitDy=0;exitPerimeter=0;" parent="1" source="sFBlTdnJSiNbamzqJHmH-2" target="sFBlTdnJSiNbamzqJHmH-4" edge="1">
          <mxGeometry width="50" height="50" relative="1" as="geometry">
            <mxPoint x="370" y="280" as="sourcePoint" />
            <mxPoint x="420" y="230" as="targetPoint" />
          </mxGeometry>
        </mxCell>
        <mxCell id="sFBlTdnJSiNbamzqJHmH-13" value="" style="endArrow=classic;startArrow=classic;html=1;rounded=0;entryX=0.5;entryY=1;entryDx=0;entryDy=0;exitX=0.5;exitY=0;exitDx=0;exitDy=0;" parent="1" source="sFBlTdnJSiNbamzqJHmH-2" target="sFBlTdnJSiNbamzqJHmH-3" edge="1">
          <mxGeometry width="50" height="50" relative="1" as="geometry">
            <mxPoint x="370" y="280" as="sourcePoint" />
            <mxPoint x="420" y="230" as="targetPoint" />
          </mxGeometry>
        </mxCell>
        <mxCell id="sFBlTdnJSiNbamzqJHmH-14" value="" style="endArrow=classic;startArrow=classic;html=1;rounded=0;entryX=0;entryY=0.75;entryDx=0;entryDy=0;exitX=0.94;exitY=0.242;exitDx=0;exitDy=0;exitPerimeter=0;" parent="1" source="sFBlTdnJSiNbamzqJHmH-2" target="sFBlTdnJSiNbamzqJHmH-5" edge="1">
          <mxGeometry width="50" height="50" relative="1" as="geometry">
            <mxPoint x="370" y="280" as="sourcePoint" />
            <mxPoint x="420" y="230" as="targetPoint" />
          </mxGeometry>
        </mxCell>
        <mxCell id="sFBlTdnJSiNbamzqJHmH-15" value="" style="endArrow=classic;startArrow=classic;html=1;rounded=0;entryX=0.5;entryY=1;entryDx=0;entryDy=0;" parent="1" source="sFBlTdnJSiNbamzqJHmH-9" target="sFBlTdnJSiNbamzqJHmH-2" edge="1">
          <mxGeometry width="50" height="50" relative="1" as="geometry">
            <mxPoint x="370" y="280" as="sourcePoint" />
            <mxPoint x="420" y="300" as="targetPoint" />
          </mxGeometry>
        </mxCell>
        <mxCell id="sFBlTdnJSiNbamzqJHmH-16" value="" style="endArrow=classic;startArrow=classic;html=1;rounded=0;entryX=0;entryY=0.5;entryDx=0;entryDy=0;exitX=0.9;exitY=0.82;exitDx=0;exitDy=0;exitPerimeter=0;" parent="1" source="sFBlTdnJSiNbamzqJHmH-2" target="sFBlTdnJSiNbamzqJHmH-7" edge="1">
          <mxGeometry width="50" height="50" relative="1" as="geometry">
            <mxPoint x="370" y="280" as="sourcePoint" />
            <mxPoint x="420" y="230" as="targetPoint" />
          </mxGeometry>
        </mxCell>
        <mxCell id="sFBlTdnJSiNbamzqJHmH-21" value="&lt;font style=&quot;font-size: 16px;&quot;&gt;&lt;b&gt;&lt;u&gt;0 Level DFD of Car Insurance Management System&lt;/u&gt;&lt;/b&gt;&lt;/font&gt;" style="text;strokeColor=none;align=center;fillColor=none;html=1;verticalAlign=middle;whiteSpace=wrap;rounded=0;" parent="1" vertex="1">
          <mxGeometry x="240" y="600" width="400" height="30" as="geometry" />
        </mxCell>
      </root>
    </mxGraphModel>
  </diagram>
</mxfile>
